<svg width="105" height="91" viewBox="0 0 105 91" fill="none" xmlns="http://www.w3.org/2000/svg">
<g clip-path="url(#clip0_157_509)">
<path d="M0 80.9283C0 57.3185 0 33.6815 0 10.0444C0.055585 9.96251 0.11117 9.88062 0.138962 9.77145C1.61196 3.32993 5.86421 0 12.59 0C20.9 0 29.2099 0 37.4921 0C55.9463 0 74.4005 0 92.8547 0C99.8306 0 104.972 4.91302 104.972 11.6275C104.972 34.2001 104.972 56.7999 104.972 79.3725C104.972 80.6827 104.75 82.0747 104.305 83.3029C102.665 88.0795 98.2742 90.9727 92.8547 90.9727C65.9516 90.9727 39.0762 90.9727 12.1731 90.9727C11.784 90.9727 11.4227 90.9727 11.0336 90.9727C6.14214 90.7271 1.8343 87.3971 0.472472 82.7843C0.305717 82.1839 0.166755 81.5561 0 80.9556L0 80.9283ZM3.52965 27.3491C3.52965 27.704 3.47406 27.9769 3.47406 28.2771C3.47406 45.2271 3.47406 62.177 3.47406 79.1269C3.47406 84.1764 6.94812 87.5882 12.0897 87.5882C39.0206 87.5882 65.9238 87.5882 92.8547 87.5882C93.6885 87.5882 94.5778 87.5063 95.3838 87.2879C99.247 86.2507 101.498 83.1938 101.498 79.0177C101.498 62.1497 101.498 45.2543 101.498 28.3863V27.3491H3.52965ZM101.47 23.8281C101.47 23.4733 101.526 23.1731 101.526 22.8728C101.526 19.2154 101.526 15.5579 101.526 11.9004C101.526 6.85093 98.0519 3.41182 92.9103 3.41182C65.9794 3.41182 39.0484 3.41182 12.1175 3.41182C6.97591 3.41182 3.50185 6.85093 3.50185 11.9004C3.50185 15.5579 3.50185 19.2154 3.50185 22.8728C3.50185 23.1731 3.50185 23.4733 3.55744 23.8281H101.498H101.47Z" fill="#FFFFFF"/>
<path d="M57.1968 39.2495C56.7799 41.1601 56.363 43.2618 55.9183 45.3635C54.084 53.8794 52.2497 62.3953 50.4432 70.9112C50.3876 71.1841 50.332 71.4298 50.2487 71.7027C49.9429 72.7945 49.1092 73.395 48.1642 73.1766C47.1637 72.931 46.6356 72.1122 46.858 71.0204C47.2749 68.9187 47.7473 66.817 48.192 64.7153C50.0263 56.1721 51.8606 47.6017 53.6949 39.0585C53.8617 38.2669 54.1674 37.5846 55.029 37.3116C56.1407 36.9841 57.1968 37.8302 57.169 39.2495H57.1968Z" fill="#FFFFFF"/>
<path d="M32.8785 55.1077C35.4076 57.2367 37.8534 59.2837 40.2991 61.3035C40.9939 61.904 41.7165 62.4499 42.4113 63.0777C43.2451 63.8419 43.3563 64.8791 42.7171 65.5888C42.05 66.3257 41.0495 66.4076 40.1601 65.6434C36.5193 62.641 32.9063 59.6113 29.3211 56.5816C28.2094 55.6536 28.2094 54.5891 29.3211 53.6611C32.9063 50.6041 36.5471 47.6017 40.1601 44.5993C41.0495 43.8623 42.0778 43.8896 42.7171 44.5993C43.3841 45.3362 43.3007 46.4007 42.3835 47.165C39.6321 49.485 36.8806 51.7778 34.1292 54.0978C33.7679 54.398 33.4066 54.6983 32.9341 55.1077H32.8785Z" fill="#FFFFFF"/>
<path d="M72.0938 55.1076C68.9811 52.5146 66.0073 50.0035 63.0057 47.4924C62.7278 47.2468 62.422 47.0011 62.1997 46.7282C61.6439 46.0185 61.6994 45.2543 62.2831 44.5992C62.8389 43.9715 63.5615 43.8623 64.3119 44.2444C64.6454 44.4082 64.9234 44.6538 65.2291 44.8995C68.592 47.7108 71.9271 50.4949 75.29 53.3062C76.9019 54.6436 76.8741 55.5443 75.29 56.8818C71.9271 59.6931 68.592 62.4772 65.2291 65.2885C65.0345 65.4523 64.8678 65.616 64.6732 65.7252C63.8395 66.2984 62.8945 66.2165 62.2831 65.5341C61.6717 64.8791 61.6994 63.8692 62.422 63.1868C63.1169 62.5317 63.8673 61.9586 64.5899 61.3308C67.0634 59.2564 69.5091 57.2093 72.0938 55.053V55.1076Z" fill="#FFFFFF"/>
<path d="M7.30978 13.5381C7.39316 10.563 9.95007 8.16106 12.8961 8.29753C15.9532 8.43401 18.3156 10.8905 18.2322 13.811C18.1488 16.7588 15.5364 19.1881 12.6181 19.0516C9.56097 18.9151 7.2264 16.4586 7.30978 13.5381ZM12.8127 11.7094C11.7566 11.7094 10.8394 12.5282 10.7838 13.5927C10.7283 14.6845 11.6176 15.6125 12.7293 15.6671C13.7576 15.6944 14.7026 14.8209 14.7582 13.7837C14.8138 12.7193 13.8966 11.7366 12.8127 11.7094Z" fill="#FFFFFF"/>
<path d="M51.9166 13.7565C51.9166 16.7316 49.5264 19.1335 46.4971 19.1335C43.4677 19.1335 41.0219 16.7862 40.9941 13.8111C40.9941 10.836 43.4121 8.43403 46.4137 8.40674C49.4431 8.40674 51.8888 10.7814 51.9166 13.7292V13.7565ZM48.4425 13.8384C48.4425 12.7193 47.581 11.8459 46.4693 11.8459C45.3854 11.8459 44.5238 12.692 44.496 13.7565C44.496 14.821 45.302 15.6944 46.3859 15.749C47.5254 15.8036 48.4425 14.9574 48.4703 13.8656L48.4425 13.8384Z" fill="#FFFFFF"/>
<path d="M24.1514 13.7837C24.1514 10.8086 26.5415 8.40669 29.5709 8.37939C32.6003 8.37939 35.046 10.7267 35.0738 13.7018C35.0738 16.6769 32.6559 19.1061 29.6543 19.1061C26.6249 19.1061 24.1792 16.7315 24.1514 13.7837ZM27.6254 13.7291C27.6254 14.8482 28.5148 15.7216 29.6265 15.7216C30.7104 15.7216 31.572 14.8482 31.5998 13.811C31.5998 12.7192 30.7104 11.8185 29.5987 11.8458C28.5148 11.8458 27.6532 12.6919 27.6532 13.7564L27.6254 13.7291Z" fill="#FFFFFF"/>
</g>
<defs>
<clipPath id="clip0_157_509">
<rect width="105" height="91" fill="white"/>
</clipPath>
</defs>
</svg>
