<svg width="119" height="104" viewBox="0 0 119 104" fill="none" xmlns="http://www.w3.org/2000/svg">
<g clip-path="url(#clip0_157_538)">
<path d="M5.98785e-05 4.05898C0.518039 3.20208 0.923413 2.27754 1.57652 1.53339C2.49987 0.473547 3.78356 0 5.20237 0C8.87326 0 12.5667 0 16.2376 0C17.4987 0 18.287 0.699046 18.287 1.71379C18.287 2.72853 17.4987 3.45013 16.2376 3.45013C12.7919 3.47268 9.3462 3.45013 5.90051 3.45013C4.00876 3.45013 3.49079 3.99133 3.46827 5.86297C3.46827 7.05811 3.46827 8.2758 3.46827 9.47095C3.46827 11.0945 4.07633 11.7034 5.72035 11.7034C12.4541 11.7034 19.2103 11.7034 25.944 11.7034C39.5016 11.7034 53.0591 11.7034 66.6166 11.7034C66.9995 11.7034 67.4049 11.6583 67.7652 11.7259C68.666 11.8838 69.229 12.4475 69.2516 13.3946C69.2741 14.3417 68.7561 14.928 67.8553 15.131C67.4499 15.2212 66.9995 15.1761 66.5716 15.1761C48.2847 15.1761 29.9978 15.1761 11.7109 15.1761C11.2605 15.1761 10.7875 15.1761 10.1795 15.1761V16.5065C10.1795 37.1396 10.1795 57.7728 10.1795 78.4059C10.1795 80.5932 10.6524 81.0442 12.8369 81.0442C32.4075 81.0442 51.9556 81.0442 71.5262 81.0442C73.4179 81.0442 74.2737 81.5629 74.2962 82.758C74.3188 83.9757 73.4404 84.5395 71.4811 84.5395C66.5941 84.5395 61.7296 84.5395 56.8426 84.5395H55.4238C55.4238 87.02 55.4013 89.4102 55.4688 91.8005C55.4688 92.0937 56.0319 92.4545 56.3922 92.6574C59.3199 94.2134 60.4684 97.686 59.0271 100.618C57.5858 103.549 54.05 104.812 51.1223 103.369C48.9153 102.286 47.7217 100.437 47.6992 97.9792C47.6992 95.5889 48.8252 93.7173 51.0097 92.6574C51.7754 92.2741 51.9781 91.8456 51.9556 91.0564C51.9105 88.9367 51.9556 86.7945 51.9556 84.5395H50.4917C37.9026 84.5395 25.3135 84.5395 12.7243 84.5395C8.76066 84.5395 6.73378 82.4874 6.73378 78.4961C6.73378 57.9081 6.73378 37.2975 6.73378 16.7095C6.73378 16.2585 6.73378 15.7849 6.73378 15.1535C3.37818 15.4918 1.05854 14.2064 -0.0224609 10.9818C-0.0224609 8.65915 -0.0224609 6.33651 -0.0224609 3.99133L5.98785e-05 4.05898ZM53.6672 100.482C55.0409 100.482 56.212 99.3773 56.212 98.0243C56.212 96.6713 55.0635 95.5212 53.7122 95.5212C52.3835 95.5212 51.28 96.6036 51.2349 97.9341C51.1899 99.2871 52.3159 100.46 53.6897 100.482H53.6672Z" fill="#FFFFFF"/>
<path d="M91.8171 75.4969C91.8171 74.7979 91.8847 74.1439 91.7946 73.49C91.7495 73.1292 91.5469 72.6782 91.2766 72.4527C87.5832 69.634 85.8491 65.9132 85.8491 61.2905C85.8491 58.4041 85.8491 55.5628 87.1778 52.8794C89.7677 47.6027 95.7357 44.6262 101.388 45.8213C107.356 47.1066 111.68 52.1578 111.771 58.1561C111.793 60.4562 111.726 62.8239 111.343 65.0789C110.892 67.7849 109.383 70.1075 107.176 71.7311C105.712 72.7909 105.735 73.9861 105.983 75.5646C107.266 75.5646 108.55 75.5646 109.811 75.5646C115.419 75.5646 119 79.1951 119.022 84.8326C119.022 89.4778 119.022 94.1457 119.022 98.7909C119.022 101.993 117.108 103.955 113.91 103.955C104.767 103.955 95.6231 103.955 86.5022 103.955C83.3042 103.955 81.39 101.993 81.39 98.7909C81.39 95.4987 81.3675 92.2064 81.39 88.9141C81.4125 85.8473 80.3315 83.2766 78.147 81.1118C74.6337 77.6617 71.143 74.189 67.7198 70.6713C64.3642 67.2211 65.8506 61.6964 70.3998 60.5013C72.7195 59.8924 74.7463 60.5689 76.4354 62.2827C80.4441 66.3191 84.4978 70.333 88.484 74.392C89.4074 75.3391 90.3983 75.7901 91.8396 75.4518L91.8171 75.4969ZM110.419 100.505C111.59 100.505 112.626 100.505 113.662 100.505C115.171 100.505 115.532 100.144 115.532 98.6556C115.532 93.9202 115.532 89.1847 115.532 84.4492C115.532 81.2697 113.392 79.15 110.217 79.0824C108.865 79.0598 107.514 79.1049 106.14 79.0824C105.42 79.0598 104.947 79.2853 104.451 79.8265C101.456 83.0737 96.4114 83.1413 93.371 79.9393C92.7405 79.2853 92.1324 78.9922 91.2541 79.0824C89.1822 79.2402 87.5382 78.4735 86.0743 76.9852C82.1782 72.9939 78.2145 69.0702 74.2509 65.124C73.9131 64.7857 73.5978 64.4475 73.2149 64.1994C71.5709 63.1621 69.2738 64.3573 69.3639 66.2966C69.4089 67.0633 69.8818 67.9427 70.4223 68.5065C73.7779 71.9566 77.1786 75.3391 80.5792 78.7216C83.4168 81.5403 84.8357 84.9453 84.8131 88.9592C84.8131 92.1387 84.8131 95.3183 84.8131 98.4978C84.8131 100.234 85.0834 100.527 86.84 100.527C93.1233 100.527 99.3841 100.527 105.667 100.527C106.05 100.527 106.411 100.482 106.906 100.46C106.906 99.9635 106.906 99.5576 106.906 99.1292C106.906 95.882 106.906 92.6123 106.906 89.3651C106.906 87.9896 107.537 87.2003 108.595 87.1778C109.699 87.1552 110.374 87.9896 110.374 89.4102C110.374 92.3191 110.374 95.2281 110.374 98.137C110.374 98.9037 110.374 99.6704 110.374 100.55L110.419 100.505ZM108.325 60.5238C108.325 59.5767 108.325 58.9228 108.325 58.2688C108.19 53.6461 104.609 49.6999 100.105 49.1812C95.2403 48.6175 90.7812 51.4813 89.7677 56.1491C89.2948 58.2914 89.3398 60.614 89.4749 62.8239C89.7227 66.725 92.5603 70.0173 96.2762 71.032C100.15 72.0919 104.204 70.6487 106.546 67.4015C108.1 65.2367 108.483 62.8013 108.325 60.5013V60.5238ZM102.334 74.6851H95.3754C95.1952 76.0381 95.1277 77.4362 96.7492 78.248C98.3031 79.0147 99.7895 78.9696 101.276 78.0676C102.717 77.1882 102.424 75.8803 102.334 74.6851Z" fill="#FFFFFF"/>
<path d="M100.646 15.2212C100.646 15.7849 100.646 16.2134 100.646 16.6193C100.646 24.2637 100.646 31.9081 100.646 39.5299C100.646 39.9133 100.691 40.3192 100.623 40.68C100.443 41.6045 99.8574 42.1457 98.9341 42.1457C98.0107 42.1457 97.4027 41.6271 97.2 40.7251C97.1099 40.3643 97.1549 39.9584 97.1549 39.575C97.1549 31.9306 97.1549 24.2862 97.1549 16.6644C97.1549 16.2359 97.1549 15.8075 97.1549 15.2212C96.7045 15.2212 96.2991 15.2212 95.8938 15.2212C89.2051 15.2212 82.4939 15.2212 75.8052 15.2212C75.4223 15.2212 75.017 15.2437 74.6566 15.1535C73.7558 14.928 73.2378 14.3192 73.2829 13.3946C73.3279 12.4701 73.8684 11.9063 74.7918 11.7485C75.1296 11.7034 75.4899 11.7259 75.8277 11.7259C84.3406 11.7259 92.876 11.7259 101.389 11.7259C103.416 11.7259 103.911 11.2298 103.911 9.20035C103.911 7.9601 103.911 6.71986 103.911 5.47962C103.911 4.14918 103.326 3.56288 102.019 3.49523C101.637 3.49523 101.254 3.49523 100.848 3.49523C75.6701 3.49523 50.5143 3.49523 25.336 3.49523C24.7955 3.49523 24.2325 3.49523 23.7145 3.40503C22.7912 3.22463 22.3183 2.57069 22.3633 1.64614C22.4083 0.789245 22.9038 0.202949 23.8046 0.0676496C24.1875 0 24.5703 0.0225499 24.9532 0.0225499C50.4693 0 75.9854 0 101.524 0C105.375 0 107.402 2.02949 107.402 5.86297C107.402 7.14831 107.402 8.4111 107.402 9.69644C107.379 12.9887 105.217 15.1535 101.952 15.2212C101.569 15.2212 101.186 15.2212 100.646 15.2212Z" fill="#FFFFFF"/>
<path d="M25.5838 42.6643C26.7324 42.6643 27.9035 42.6418 29.052 42.6643C31.3041 42.732 32.9481 44.2879 33.0382 46.4978C33.1058 48.0086 33.1058 49.5195 33.0382 51.0303C32.9256 53.1275 31.2816 54.7285 29.1872 54.7736C26.7549 54.8187 24.3227 54.8187 21.8904 54.7736C19.8861 54.7285 18.242 53.1951 18.1069 51.2333C17.9943 49.5871 17.9943 47.8959 18.1069 46.2497C18.242 44.2654 19.8635 42.7545 21.8679 42.6869C23.1065 42.6418 24.3452 42.6869 25.5838 42.6869V42.6643ZM25.6289 51.3235C26.5973 51.3235 27.5657 51.3009 28.5341 51.3235C29.2547 51.346 29.6151 51.1205 29.6151 50.3538C29.5925 49.2714 29.5925 48.189 29.6151 47.1066C29.6151 46.4076 29.3448 46.137 28.6467 46.1595C26.5973 46.1821 24.5479 46.1821 22.4985 46.1595C21.8003 46.1595 21.5301 46.4752 21.5301 47.1292C21.5301 48.2116 21.5301 49.294 21.5301 50.3764C21.5301 51.0529 21.8003 51.346 22.4985 51.3235C23.5344 51.3009 24.5929 51.3235 25.6289 51.3235Z" fill="#FFFFFF"/>
<path d="M25.5841 37.4327C24.4355 37.4327 23.2644 37.4553 22.1158 37.4327C19.7286 37.3425 18.1522 35.7866 18.0621 33.3963C18.0171 32.0433 18.0171 30.6903 18.0621 29.3373C18.1522 26.9245 19.8187 25.3235 22.2285 25.2784C24.4805 25.2558 26.7101 25.2333 28.9622 25.2784C31.3043 25.3235 32.9934 26.947 33.061 29.2697C33.106 30.6903 33.106 32.1335 33.061 33.5542C32.9709 35.6964 31.4395 37.2523 29.3 37.3876C28.0613 37.4553 26.8227 37.3876 25.5841 37.3876V37.4327ZM25.5841 28.751C24.5706 28.751 23.5797 28.7736 22.5663 28.751C21.8231 28.7285 21.5078 29.0667 21.5303 29.7883C21.5303 30.8707 21.5303 31.9531 21.5303 33.0355C21.5303 33.6669 21.8006 33.9601 22.4311 33.9601C24.5256 33.9601 26.5975 33.9601 28.6919 33.9601C29.3225 33.9601 29.6153 33.6895 29.5928 33.0581C29.5928 31.9306 29.5928 30.8031 29.5928 29.6981C29.5928 28.9765 29.2324 28.751 28.5793 28.7736C27.5659 28.7736 26.575 28.7736 25.5615 28.7736L25.5841 28.751Z" fill="#FFFFFF"/>
<path d="M25.5841 72.2047C24.458 72.2047 23.332 72.2272 22.2285 72.2047C19.7512 72.1145 18.1297 70.4909 18.0621 68.0104C18.0171 66.7025 18.0171 65.3721 18.0621 64.0642C18.1522 61.719 19.6836 60.118 22.0032 60.0503C24.3905 59.9601 26.8002 59.9601 29.1874 60.0503C31.4395 60.1405 32.9709 61.7641 33.061 64.0191C33.106 65.3721 33.106 66.7251 33.061 68.0781C32.9934 70.4458 31.4169 72.0694 29.0523 72.1821C27.9037 72.2498 26.7326 72.1821 25.5841 72.1821V72.2047ZM25.5841 63.5004C24.5706 63.5004 23.5797 63.5004 22.5663 63.5004C21.8456 63.5004 21.4853 63.7259 21.5078 64.4926C21.5303 65.575 21.5078 66.6574 21.5078 67.7398C21.5078 68.4163 21.8231 68.7095 22.4987 68.7095C24.5481 68.7095 26.5975 68.7095 28.6469 68.7095C29.345 68.7095 29.5928 68.3487 29.5928 67.6947C29.5928 66.6574 29.5477 65.5976 29.5928 64.5603C29.6378 63.7485 29.2775 63.4553 28.4892 63.4779C27.5208 63.5004 26.5524 63.4779 25.5841 63.4779V63.5004Z" fill="#FFFFFF"/>
<path d="M49.9063 28.7511C46.1454 28.7511 42.4069 28.7511 38.6459 28.7511C37.2046 28.7511 36.4839 28.1873 36.4614 27.0824C36.4389 25.9323 37.2046 25.2784 38.6459 25.2784C46.1904 25.2784 53.7349 25.2558 61.2794 25.3235C61.9325 25.3235 62.7432 25.797 63.1711 26.3157C63.4414 26.6314 63.3738 27.6236 63.0585 27.9844C62.6756 28.4354 61.8874 28.7285 61.2794 28.7511C57.4959 28.8187 53.6898 28.7736 49.9063 28.7962V28.7511Z" fill="#FFFFFF"/>
<path d="M49.9733 42.6643C53.7343 42.6643 57.4727 42.6643 61.2337 42.6643C62.6075 42.6643 63.3957 43.2957 63.4408 44.3555C63.4633 45.4605 62.63 46.1595 61.2112 46.1595C53.6667 46.1595 46.1222 46.1595 38.5778 46.1595C36.9112 46.1595 35.9654 44.8967 36.641 43.6114C37.0689 42.8222 37.7895 42.6643 38.6003 42.6643C42.3838 42.6643 46.1898 42.6643 49.9733 42.6643Z" fill="#FFFFFF"/>
<path d="M49.8387 63.5004C46.1228 63.5004 42.4068 63.5229 38.6909 63.4778C38.0828 63.4778 37.3396 63.2749 36.8892 62.9141C35.9433 62.1023 36.4163 60.4787 37.6324 60.1405C38.0378 60.0277 38.4657 60.0277 38.8936 60.0277C46.2354 60.0277 53.5997 60.0277 60.9415 60.0277C61.0991 60.0277 61.2567 60.0277 61.4144 60.0277C62.653 60.0954 63.4413 60.7944 63.3962 61.8317C63.3737 62.8239 62.6305 63.5004 61.4144 63.5004C58.1714 63.5229 54.9059 63.5004 51.6629 63.5004C51.0548 63.5004 50.4242 63.5004 49.8162 63.5004H49.8387Z" fill="#FFFFFF"/>
<path d="M46.5508 54.8187C43.8708 54.8187 41.2134 54.8187 38.5334 54.8187C37.1596 54.8187 36.4165 54.1873 36.439 53.0598C36.439 51.9549 37.2047 51.3235 38.601 51.3235C43.8934 51.3235 49.2083 51.3235 54.5007 51.3235C55.8294 51.3235 56.6401 52.0451 56.6176 53.1049C56.6176 54.1873 55.8069 54.7962 54.4331 54.8187C51.7982 54.8187 49.1632 54.8187 46.5508 54.8187Z" fill="#FFFFFF"/>
<path d="M46.5728 68.7321C49.2303 68.7321 51.9103 68.7321 54.5677 68.7321C55.8514 68.7321 56.6171 69.386 56.6171 70.4233C56.6171 71.4606 55.8289 72.2047 54.5903 72.2047C49.2078 72.2047 43.8478 72.2047 38.4653 72.2047C37.1817 72.2047 36.4385 71.5282 36.4385 70.4684C36.4385 69.3409 37.1591 68.7321 38.5554 68.7321C41.2129 68.7321 43.8929 68.7321 46.5503 68.7321H46.5728Z" fill="#FFFFFF"/>
<path d="M46.4378 37.4328C43.7804 37.4328 41.1004 37.4328 38.4429 37.4328C37.0241 37.4328 36.2359 36.5534 36.4836 35.3357C36.7088 34.2759 37.5196 33.9602 38.488 33.9602C40.8752 33.9602 43.2849 33.9602 45.6721 33.9602C48.5773 33.9602 51.4825 33.9151 54.3652 33.9827C54.9957 33.9827 55.784 34.2759 56.1893 34.7043C56.5046 35.0426 56.6398 36.0122 56.392 36.373C56.0317 36.8916 55.266 37.3652 54.6579 37.3877C51.9104 37.5005 49.1628 37.4328 46.4153 37.4328H46.4378Z" fill="#FFFFFF"/>
</g>
<defs>
<clipPath id="clip0_157_538">
<rect width="119" height="104" fill="white"/>
</clipPath>
</defs>
</svg>
