<svg width="107" height="107" viewBox="0 0 107 107" fill="none" xmlns="http://www.w3.org/2000/svg">
<g clip-path="url(#clip0_157_553)">
<path d="M68.1345 87.1639C68.9982 89.7543 69.7899 92.2248 70.6536 94.6474C70.7256 94.8633 71.2294 95.0312 71.5413 95.0551C72.5729 95.1511 73.6285 95.0551 74.6121 95.271C77.611 95.9186 79.5543 98.701 79.2184 101.675C78.8825 104.601 76.4354 106.88 73.4365 106.952C71.3733 107 69.3101 106.952 67.2469 106.952C56.139 106.952 45.0312 106.952 33.9473 106.952C30.5886 106.952 27.9735 104.601 27.7576 101.435C27.5417 98.0294 30.1567 95.1751 33.5874 95.0551C35.3788 95.0072 36.5543 94.1277 37.1141 92.4167C37.6659 90.7857 38.1937 89.1307 38.7215 87.4757C38.7215 87.4037 38.7215 87.3078 38.7215 87.1159C38.2897 87.1159 37.8339 87.1159 37.402 87.1159C28.2374 87.1159 19.0729 87.1159 9.9083 87.1159C4.36637 87.1639 0 82.7985 0 77.2818C0 57.0139 0 36.746 0 16.4781C0 10.1219 4.19843 5.94844 10.5561 5.94844C14.9224 5.94844 19.2888 5.94844 23.7031 5.94844C24.063 2.92625 25.5265 0.887469 28.5013 0.1679C29.1251 0 29.7969 0 30.4686 0C45.6789 0 60.9132 0 76.1475 0C80.5139 0 82.4572 1.58305 83.3448 5.94844C87.6632 5.94844 91.9816 5.94844 96.3 5.94844C97.1157 5.94844 97.9554 5.97243 98.7711 6.11634C103.593 6.97983 106.928 10.9375 107 15.8545C107.024 17.9892 107 20.1479 107 22.2827C107 40.5597 107 58.8608 107 77.1379C107 82.8464 102.682 87.1639 97.0197 87.1639C87.9031 87.1639 78.7866 87.1639 69.646 87.1639H68.1585H68.1345ZM83.2009 9.90607V11.3692C83.2009 21.2273 83.2009 31.1094 83.2009 40.9675C83.2009 45.117 80.8018 47.5156 76.6753 47.5396C69.6939 47.5396 62.7365 47.5396 55.7552 47.5396C54.8435 47.5396 54.2437 47.7554 53.6919 48.547C52.3724 50.4418 50.933 52.2647 49.5415 54.1116C48.126 55.9825 46.9025 55.9825 45.535 54.1596C44.1435 52.3127 42.704 50.4898 41.3845 48.5949C40.8087 47.7794 40.185 47.5396 39.2253 47.5396C36.2505 47.5875 33.2756 47.5396 30.3007 47.5396C26.1022 47.5396 23.7271 45.141 23.7271 40.9195C23.7271 31.0614 23.7271 21.1793 23.7271 11.3212C23.7271 10.8895 23.7271 10.4338 23.7271 9.90607H22.3836C18.4251 9.90607 14.4666 9.90607 10.5081 9.90607C6.30964 9.90607 3.93453 12.3046 3.93453 16.5261C3.93453 31.709 3.93453 46.8919 3.93453 62.0989V63.3221H102.993C102.993 62.7944 102.993 62.3627 102.993 61.907C102.993 52.0729 102.993 42.2627 102.993 32.4286C102.993 26.9359 102.993 21.4432 102.993 15.9505C102.993 12.6884 100.618 10.002 97.4756 9.93006C92.7733 9.83412 88.0711 9.90607 83.2009 9.90607ZM47.5502 50.154C48.8937 48.3551 50.2132 46.7241 51.4128 44.9971C52.1565 43.9417 53.0442 43.534 54.3157 43.534C61.7529 43.5819 69.1661 43.5579 76.6034 43.534C78.5706 43.534 79.2424 42.8863 79.2424 40.9675C79.2424 29.4544 79.2424 17.9413 79.2424 6.42815C79.2424 4.58126 78.5466 3.90966 76.6993 3.90966C61.2251 3.90966 45.7509 3.90966 30.2767 3.90966C28.4294 3.90966 27.7576 4.58126 27.7576 6.45214C27.7576 17.9653 27.7576 29.4784 27.7576 40.9915C27.7576 42.8624 28.4294 43.534 30.3007 43.534C33.8513 43.534 37.402 43.5579 40.9527 43.534C42.1522 43.534 42.9679 43.9417 43.6637 44.9011C44.8872 46.6281 46.2067 48.3071 47.5742 50.13L47.5502 50.154ZM102.874 67.4237H3.98251C3.98251 70.8296 3.93453 74.1636 4.0065 77.4977C4.03049 79.0087 4.67825 80.3759 5.80583 81.4553C7.19731 82.7985 8.90067 83.1822 10.796 83.1822C39.2733 83.1822 67.7267 83.1822 96.204 83.1822C96.5399 83.1822 96.8758 83.1822 97.1877 83.1822C100.139 82.9904 102.562 81.1674 102.802 78.2652C103.113 74.7153 102.874 71.1175 102.874 67.4237ZM66.5751 95.0551C65.7834 92.6566 64.9917 90.4019 64.296 88.1233C64.0561 87.3318 63.6722 87.1399 62.9045 87.1399C57.3865 87.1639 51.8446 87.1399 46.3027 87.1399C44.1275 87.1399 42.696 88.1713 42.0083 90.234C41.4805 91.8171 40.9767 93.3761 40.4249 95.0312H66.5751V95.0551ZM53.5 99.0368C47.1904 99.0368 40.8807 99.0368 34.5471 99.0368C34.1872 99.0368 33.8034 98.9888 33.4435 99.0607C32.3879 99.2526 31.7401 99.9242 31.7401 101.004C31.7401 102.107 32.3879 102.755 33.4435 102.946C33.8034 103.018 34.1872 102.97 34.5471 102.97C47.1664 102.97 59.8096 102.97 72.4289 102.97C72.7888 102.97 73.1726 103.018 73.5325 102.946C74.5881 102.755 75.2359 102.083 75.2359 101.004C75.2359 99.9002 74.5881 99.2526 73.5325 99.0607C73.1726 98.9888 72.7888 99.0368 72.4289 99.0368C66.1193 99.0368 59.8096 99.0368 53.476 99.0368H53.5Z" fill="#FFFFFF"/>
<path d="M47.5498 22.0428C47.5498 20.052 47.5498 18.0851 47.5498 16.0943C47.5498 14.4153 48.2695 13.1441 49.781 12.4005C51.2444 11.681 52.6839 11.8729 53.9794 12.8563C56.7864 15.015 59.6173 17.1737 62.3763 19.4043C64.6554 21.2512 64.4875 24.2495 62.0644 25.9045C59.3294 27.7514 56.5704 29.5503 53.7635 31.3012C50.8846 33.1002 47.6218 31.2533 47.5738 27.8713C47.5498 25.9284 47.5738 23.9856 47.5738 22.0428H47.5498ZM59.9772 22.5465C57.0742 20.2918 54.3872 18.1811 51.5563 15.9984V28.0152C54.3872 26.1683 57.0982 24.4173 59.9772 22.5465Z" fill="#FFFFFF"/>
<path d="M47.5506 75.3149C47.5506 77.9294 45.7513 80.28 43.2083 80.9995C40.6172 81.7191 37.8103 80.6397 36.5148 78.2891C36.0589 77.4736 35.6031 77.2578 34.7154 77.2578C28.7417 77.3057 22.7439 77.2578 16.7701 77.2578C16.4103 77.2578 16.0264 77.3057 15.6666 77.2338C14.587 77.0419 13.9632 76.4183 13.9152 75.3149C13.8672 74.2835 14.6349 73.4201 15.7145 73.3241C16.3383 73.2522 16.9621 73.3241 17.5619 73.3241C23.2477 73.3241 28.9576 73.3241 34.6435 73.3241C35.5551 73.3241 36.0829 73.1562 36.5628 72.2687C37.8343 69.9182 40.5693 68.8868 43.1363 69.5824C45.7513 70.2779 47.5506 72.6285 47.5506 75.3389V75.3149ZM43.5921 75.267C43.5921 74.2116 42.7045 73.3241 41.6249 73.3001C40.5213 73.3001 39.5856 74.2356 39.6336 75.3389C39.6816 76.3943 40.5932 77.2578 41.6489 77.2338C42.7045 77.2098 43.5921 76.2983 43.5681 75.243L43.5921 75.267Z" fill="#FFFFFF"/>
<path d="M73.4364 73.3002C79.0503 73.3002 84.6642 73.3002 90.2781 73.3002C90.638 73.3002 91.0218 73.2522 91.3817 73.3242C92.4373 73.5161 93.0851 74.1877 93.0851 75.267C93.0851 76.3704 92.4373 77.018 91.3817 77.2099C90.9739 77.2818 90.566 77.2339 90.1582 77.2339C78.9304 77.2339 67.7026 77.2339 56.4748 77.2339C56.0669 77.2339 55.6351 77.2818 55.2512 77.2099C54.1956 77.018 53.5479 76.3464 53.5479 75.267C53.5479 74.1637 54.1956 73.5161 55.2512 73.3242C55.6111 73.2522 55.9949 73.3002 56.3548 73.3002C62.0407 73.3002 67.7505 73.3002 73.4364 73.3002Z" fill="#FFFFFF"/>
</g>
<defs>
<clipPath id="clip0_157_553">
<rect width="107" height="107" fill="white"/>
</clipPath>
</defs>
</svg>
